<?xml version="1.0" encoding="UTF-8" standalone="no"?>
<svg
   id="_レイヤー_2"
   data-name="レイヤー_2"
   version="1.1"
   viewBox="0 0 2000 800"
   fill="#1e293b"
   sodipodi:docname="mitizure.svg"
   width="2000"
   height="800"
   inkscape:version="1.3.2 (091e20e, 2023-11-25, custom)"
   xmlns:inkscape="http://www.inkscape.org/namespaces/inkscape"
   xmlns:sodipodi="http://sodipodi.sourceforge.net/DTD/sodipodi-0.dtd"
   xmlns="http://www.w3.org/2000/svg"
   xmlns:svg="http://www.w3.org/2000/svg">
  <defs
     id="defs3" />
  <sodipodi:namedview
     id="namedview3"
     pagecolor="#ffffff"
     bordercolor="#000000"
     borderopacity="0.25"
     inkscape:showpageshadow="2"
     inkscape:pageopacity="0.0"
     inkscape:pagecheckerboard="0"
     inkscape:deskcolor="#d1d1d1"
     inkscape:zoom="0.4065"
     inkscape:cx="998.76999"
     inkscape:cy="803.19803"
     inkscape:window-width="1920"
     inkscape:window-height="1009"
     inkscape:window-x="1072"
     inkscape:window-y="399"
     inkscape:window-maximized="1"
     inkscape:current-layer="_レイヤー_2" />
  <!-- Generator: Adobe Illustrator 29.8.3, SVG Export Plug-In . SVG Version: 2.1.1 Build 3)  -->
  <path
     d="m 1203.05,492.26385 c 50.1,0.77 128.85,49.79 199.46,98.12 70.63,47.28 133.11,93.88 151.1,65.55 17.99,-28.82 -41.02,-58.1 -103.06,-82.94 -62.02,-25.36 -127.07,-46.28 -120.48,-70.42 6.56,-23.85 99.27,-5.13 188.33,14.03 89.12,18.12 174.59,36.68 168.12,-11.65 -6.45,-48.09 -83.07,-44.5 -161.7,-38.93 -78.58,6.05 -159.17,14.08 -172.5,-13.98 -13.39,-28.24 146.52,-47.66 294.07,-88.49 73.83,-20.58 144.65,-47.2 189.76,-81.56 45.13,-34 64.55,-75.73 36.01,-118.26 -28.66,-43.34 -79.75,-31.68 -141.52,-1.42 -61.76,30.9 -134.19,80.42 -205.19,127.5 -141.98,95.53 -278.25,179.15 -310.57,159.34 -64.65,-40.16 100.67,-163.61 111.62,-182.77 10.99,-17.02 14.66,-31.45 -23.56,-33.99 -19.08,-1.01 -107.36,12.56 -189.28,27.66 -81.91,15.55 -157.48,32.61 -150.92,49.05 13.08,32.99 190.56,-41.9 221.94,14.01 31.45,58.32 -228.48,158.36 -236.37,109.61 -7.86,-48.56 197.46,-49.69 177,-92.74 -20.44,-42.21 -135.75,52.92 -215.54,36.55 -79.8,-15.01 -196.34,-120.5 -210.62,-84.9 -14.35,38.19 172.83,109.41 168.94,134.76 -3.93,26.25 -62.75,27.89 -140.81,5.17 -23.75,-8.71 -68.79,-33.29 -124.07,-69 -55.29,-35.38 -120.81,-81.9 -185.71,-127 -64.9,-44.78 -129.17,-88.14 -182.1,-109.77 -52.93,-21.3 -94.53,-20.85 -114.24,29.47 -39.42,103.06 100.8,166.92 248.53,200.5 147.52,34.72 302.23,50.64 286.49,89.91 -15.69,39.22 -88.76,30.01 -159.49,18.21 -70.76,-11.21 -139.17,-25.02 -146.3,18.61 -7.15,44.18 71.18,37.96 153.82,29.61 82.6,-8.97 169.5,-20.06 178.34,-0.03 8.86,20.16 -62.54,31.53 -131.08,49.33 -68.58,17.39 -134.3,41.2 -114.93,76.71 19.34,34.2 117.08,-18.5 216.01,-65.69 98.89,-48.86 198.99,-92.21 222.07,-78 46.2,29.06 -136.42,110.65 -69.98,142.29 66.43,30 93.96,-140.14 202.92,-143.88 108.96,-3.58 21.69,154.91 98.33,158.9 76.62,4.69 -3.07,-160.87 97.15,-159.49 z"
     id="path1" />
  <path
     d="m 1296.78,371.22385 c 0,10.39 -9.43,18.87 -21.08,18.95 -11.64,0.08 -21.08,-8.17 -21.08,-18.42 0,-10.25 9.44,-18.72 21.08,-18.93 11.64,-0.22 21.08,8.01 21.08,18.4 z"
     id="path2" />
  <path
     d="m 1341.63,323.26385 c 0,10.53 -9.43,19.29 -21.06,19.55 -11.64,0.26 -21.07,-7.95 -21.07,-18.33 0,-10.37 9.43,-19.09 21.07,-19.51 11.63,-0.42 21.06,7.76 21.06,18.29 z"
     id="path3" />
</svg>
